<?xml version="1.0" encoding="UTF-8" standalone="no"?>
<svg
   width="165"
   height="16"
   viewBox="0 0 165 16"
   fill="none"
   version="1.1"
   id="svg6"
   sodipodi:docname="LoadBar3of3.svg"
   inkscape:version="1.1 (c68e22c387, 2021-05-23)"
   xmlns:inkscape="http://www.inkscape.org/namespaces/inkscape"
   xmlns:sodipodi="http://sodipodi.sourceforge.net/DTD/sodipodi-0.dtd"
   xmlns="http://www.w3.org/2000/svg"
   xmlns:svg="http://www.w3.org/2000/svg">
  <defs
     id="defs10" />
  <sodipodi:namedview
     id="namedview8"
     pagecolor="#ffffff"
     bordercolor="#999999"
     borderopacity="1"
     inkscape:pageshadow="0"
     inkscape:pageopacity="0"
     inkscape:pagecheckerboard="0"
     showgrid="false"
     inkscape:zoom="7.5878788"
     inkscape:cx="82.565895"
     inkscape:cy="7.9732428"
     inkscape:window-width="1920"
     inkscape:window-height="1051"
     inkscape:window-x="-9"
     inkscape:window-y="-9"
     inkscape:window-maximized="1"
     inkscape:current-layer="svg6" />
  <path
     d="M0 8C0 3.58172 3.58172 0 8 0H157C161.418 0 165 3.58172 165 8V8C165 12.4183 161.418 16 157 16H8C3.58172 16 0 12.4183 0 8V8Z"
     fill="#C4C4C4"
     id="path2" />
  <path
     d="M0 8C0 3.58172 3.58172 0 8 0H157C161.418 0 165 3.58172 165 8V8C165 12.4183 161.418 16 157 16H8C3.58172 16 0 12.4183 0 8V8Z"
     fill="#5685EE"
     id="path4"
     style="fill:#c4c4c4;fill-opacity:1" />
</svg>
